#!OML:ASF F:\VICON\USERDATA\INSTALL\rory3\rory3.ASF
:FULLY-SPECIFIED
:DEGREES
744
root 1.82728 17.9684 8.74562 4.49329 -58.9211 -3.94293
lowerback 9.96702 1.95622 3.16932
upperback 1.156 2.96588 1.14446
thorax -4.27984 1.40807 -0.986479
lowerneck -12.4817 -5.62349 -12.5326
upperneck 36.1249 -9.07837 8.71481
head 15.9268 -4.71528 4.31709
rclavicle -4.78077e-014 7.95139e-016
rhumerus -36.1114 29.0975 -95.6862
rradius 92.7779
rwrist 3.42812
rhand -8.91246 13.9266
rfingers 7.12502
rthumb 17.0307 -15.3469
lclavicle -4.78077e-014 7.95139e-016
lhumerus -38.9796 -29.5435 100.488
lradius 86.6742
lwrist -5.88068
lhand -13.975 23.5063
lfingers 7.12502
lthumb 12.1532 53.1333
rfemur -4.65884 -3.3526 30.438
rtibia 23.4397
rfoot -15.2288 -5.89132
rtoes 17.5296
lfemur -24.2613 -1.69763 -13.7022
ltibia 49.3132
lfoot -5.24814 -1.99929
ltoes -16.0143
745
root 1.73362 17.9596 8.79279 4.57371 -59.4687 -3.97624
lowerback 9.95737 2.07437 3.07899
upperback 1.18705 3.10908 1.09579
thorax -4.23867 1.48096 -1.00394
lowerneck -12.5782 -5.59936 -12.4302
upperneck 36.0222 -9.02395 8.66933
head 15.879 -4.67801 4.28296
rclavicle -9.93923e-015 1.11319e-014
rhumerus -36.0415 29.1627 -95.8018
rradius 92.7653
rwrist 3.5004
rhand -9.04165 13.7678
rfingers 7.12502
rthumb 16.9063 -15.5163
lclavicle -9.93923e-015 1.11319e-014
lhumerus -38.8678 -29.3775 100.271
lradius 86.6197
lwrist -6.082
lhand -14.0864 23.4462
lfingers 7.12502
lthumb 12.0458 53.0795
rfemur -4.18504 -3.08452 30.4296
rtibia 23.2574
rfoot -15.3695 -5.93408
rtoes 16.1381
lfemur -24.3854 -1.57741 -13.8143
ltibia 47.4177
lfoot -5.66171 -1.25896
ltoes -16.4721
746
root 1.64506 17.9494 8.84792 4.70179 -59.7373 -4.02524
lowerback 9.94242 2.12952 3.15633
upperback 1.17263 3.18959 1.07363
thorax -4.23689 1.51928 -1.08021
lowerneck -12.6269 -5.62777 -12.5275
upperneck 35.9774 -9.04666 8.72393
head 15.8824 -4.6912 4.31765
rclavicle 5.00937e-014 3.97569e-016
rhumerus -36.043 29.1472 -95.7883
rradius 92.804
rwrist 3.63736
rhand -9.11041 13.3939
rfingers 7.12502
rthumb 16.8402 -15.8959
lclavicle 5.00937e-014 3.97569e-016
lhumerus -38.7824 -29.337 100.228
lradius 86.5353
lwrist -6.29146
lhand -14.2005 23.4652
lfingers 7.12502
lthumb 11.9358 53.1049
rfemur -3.7199 -3.03234 30.4172
rtibia 22.9293
rfoot -15.4852 -5.93772
rtoes 14.9214
lfemur -24.5413 -1.755 -13.9358
ltibia 45.3828
lfoot -5.88319 -0.437797
ltoes -17.691
747
root 1.55333 17.9443 8.90129 5.09544 -60.001 -4.36742
lowerback 9.9365 2.20711 3.32232
upperback 1.13029 3.31437 1.13711
thorax -4.26738 1.5775 -1.12388
lowerneck -12.6903 -5.63291 -12.6667
upperneck 36.0574 -9.01678 8.72862
head 15.944 -4.69705 4.35201
rclavicle -8.59744e-014 -1.90833e-014
rhumerus -36.0938 28.946 -95.7462
rradius 92.8161
rwrist 3.91487
rhand -8.80303 13.3892
rfingers 7.12502
rthumb 17.136 -15.8751
lclavicle -8.59744e-014 -1.90833e-014
lhumerus -38.7737 -29.3586 100.342
lradius 86.4861
lwrist -6.41079
lhand -14.1092 23.375
lfingers 7.12502
lthumb 12.0238 53.0096
rfemur -3.20727 -3.06376 30.5572
rtibia 22.4647
rfoot -15.5554 -5.77055
rtoes 14.6639
lfemur -24.6696 -1.88861 -13.8561
ltibia 43.2498
lfoot -6.07139 0.0787667
ltoes -18.5993
748
root 1.45967 17.9481 8.95011 5.38106 -60.2991 -4.63443
lowerback 9.98162 2.299 3.41444
upperback 1.12405 3.44903 1.1595
thorax -4.2895 1.64184 -1.17161
lowerneck -12.7533 -5.65232 -12.7236
upperneck 36.0657 -9.00524 8.69194
head 15.9637 -4.70203 4.34703
rclavicle -7.07176e-014 1.11319e-014
rhumerus -36.0492 28.6788 -95.736
rradius 92.798
rwrist 4.02802
rhand -8.62177 13.529
rfingers 7.12502
rthumb 17.3105 -15.7201
lclavicle -7.07176e-014 1.11319e-014
lhumerus -38.7824 -29.3915 100.377
lradius 86.5442
lwrist -6.54118
lhand -13.7077 23.2518
lfingers 7.12502
lthumb 12.4109 52.8634
rfemur -2.69734 -3.07106 30.6604
rtibia 22.1242
rfoot -15.644 -5.69918
rtoes 12.879
lfemur -24.7202 -2.0143 -13.783
ltibia 40.9921
lfoot -6.11868 0.280467
ltoes -18.3074
